<svg xmlns="http://www.w3.org/2000/svg" width="1600" height="911" viewBox="0 0 1600 911" fill="none"><g clip-path="url(#clip0_18_2)"><rect width="1600" height="1500" fill="#1B425E"></rect><g filter="url(#filter0_f_18_2)"><circle cx="-0.5" cy="0.5" r="301.5" fill="#07C8FB"></circle></g><g filter="url(#filter1_f_18_2)"><circle cx="1324.5" cy="556.5" r="354.5" fill="#07C8FB"></circle></g><line x1="1452.5" y1="550" x2="1452.5" y2="2090" stroke="url(#paint0_radial_18_2)" stroke-opacity="0.24" stroke-dasharray="2 2"></line><line x1="159.5" y1="138" x2="159.5" y2="1120" stroke="url(#paint1_radial_18_2)" stroke-opacity="0.24" stroke-dasharray="2 2"></line><line x1="763.5" y1="139" x2="763.5" y2="1679" stroke="url(#paint2_radial_18_2)" stroke-opacity="0.24" stroke-dasharray="2 2"></line><line x1="1637" y1="516.5" x2="97" y2="516.5" stroke="url(#paint3_radial_18_2)" stroke-opacity="0.24" stroke-dasharray="2 2"></line><path fill-rule="evenodd" clip-rule="evenodd" d="M763 503C761.866 503 760.947 503.919 760.947 505.053V513.947L752.053 513.947C750.919 513.947 750 514.866 750 516C750 517.134 750.919 518.053 752.053 518.053L760.947 518.053V526.947C760.947 528.081 761.866 529 763 529C764.134 529 765.053 528.081 765.053 526.947V518.053L773.947 518.053C775.081 518.053 776 517.134 776 516C776 514.866 775.081 513.947 773.947 513.947L765.053 513.947V505.053C765.053 503.919 764.134 503 763 503Z" fill="url(#paint4_linear_18_2)"></path><line x1="159.5" y1="-805" x2="159.5" y2="177" stroke="url(#paint5_radial_18_2)" stroke-opacity="0.24" stroke-dasharray="2 2"></line><line x1="207" y1="130.5" x2="-1333" y2="130.5" stroke="url(#paint6_radial_18_2)" stroke-opacity="0.24" stroke-dasharray="2 2"></line><path fill-rule="evenodd" clip-rule="evenodd" d="M151 130.5C151 131.241 151.601 131.842 152.342 131.842L158.158 131.842L158.158 137.658C158.158 138.399 158.759 139 159.5 139C160.241 139 160.842 138.399 160.842 137.658L160.842 131.842L166.658 131.842C167.399 131.842 168 131.241 168 130.5C168 129.759 167.399 129.158 166.658 129.158L160.842 129.158L160.842 123.342C160.842 122.601 160.241 122 159.5 122C158.759 122 158.158 122.601 158.158 123.342L158.158 129.158L152.342 129.158C151.601 129.158 151 129.759 151 130.5Z" fill="url(#paint7_linear_18_2)"></path></g><defs><filter id="filter0_f_18_2" x="-1052" y="-1051" width="2103" height="2103" filterUnits="userSpaceOnUse" color-interpolation-filters="sRGB"><feGaussianBlur stdDeviation="375"></feGaussianBlur></filter><filter id="filter1_f_18_2" x="70" y="-698" width="2509" height="2509" filterUnits="userSpaceOnUse" color-interpolation-filters="sRGB"><feGaussianBlur stdDeviation="450"></feGaussianBlur></filter><radialGradient id="paint0_radial_18_2" cx="0" cy="0" r="1" gradientUnits="userSpaceOnUse" gradientTransform="translate(1506.02 717.502) rotate(98.1962) scale(726.412 1.11868e+06)"><stop stop-color="white" stop-opacity="0"></stop><stop offset="0.293456" stop-color="white"></stop><stop offset="1" stop-color="white" stop-opacity="0"></stop></radialGradient><radialGradient id="paint1_radial_18_2" cx="0" cy="0" r="1" gradientUnits="userSpaceOnUse" gradientTransform="translate(151.586 137.991) rotate(89.5642) scale(982.03 2.30336e+06)"><stop stop-color="white" stop-opacity="0"></stop><stop offset="0.79632" stop-color="white"></stop><stop offset="1" stop-color="white" stop-opacity="0"></stop></radialGradient><radialGradient id="paint2_radial_18_2" cx="0" cy="0" r="1" gradientUnits="userSpaceOnUse" gradientTransform="translate(797.037 -34.497) rotate(94.5063) scale(1063.28 1.63745e+06)"><stop stop-color="white" stop-opacity="0"></stop><stop offset="0.51546" stop-color="white"></stop><stop offset="1" stop-color="white" stop-opacity="0"></stop></radialGradient><radialGradient id="paint3_radial_18_2" cx="0" cy="0" r="1" gradientUnits="userSpaceOnUse" gradientTransform="translate(1552.5 516.145) rotate(-179.003) scale(1099.16 1.69271e+06)"><stop stop-color="white" stop-opacity="0"></stop><stop offset="0.717652" stop-color="white"></stop><stop offset="1" stop-color="white" stop-opacity="0"></stop></radialGradient><linearGradient id="paint4_linear_18_2" x1="773" y1="499.5" x2="756.5" y2="532" gradientUnits="userSpaceOnUse"><stop stop-color="white"></stop><stop offset="1" stop-color="white" stop-opacity="0"></stop></linearGradient><radialGradient id="paint5_radial_18_2" cx="0" cy="0" r="1" gradientUnits="userSpaceOnUse" gradientTransform="translate(159 -805) rotate(89.9979) scale(981.999 2.30328e+06)"><stop stop-color="white" stop-opacity="0"></stop><stop offset="0.952456" stop-color="white"></stop><stop offset="1" stop-color="white" stop-opacity="0"></stop></radialGradient><radialGradient id="paint6_radial_18_2" cx="0" cy="0" r="1" gradientUnits="userSpaceOnUse" gradientTransform="translate(207 130) rotate(179.25) scale(1413.62 2.17698e+06)"><stop stop-color="white" stop-opacity="0"></stop><stop offset="0.0351692" stop-color="white"></stop><stop offset="1" stop-color="white" stop-opacity="0"></stop></radialGradient><linearGradient id="paint7_linear_18_2" x1="148.712" y1="123.962" x2="169.962" y2="134.75" gradientUnits="userSpaceOnUse"><stop stop-color="white"></stop><stop offset="1" stop-color="white" stop-opacity="0"></stop></linearGradient><clipPath id="clip0_18_2"><rect width="1600" height="911" fill="white"></rect></clipPath></defs></svg>